<svg width="27" height="24" viewBox="0 0 27 24" fill="none" xmlns="http://www.w3.org/2000/svg">
<path d="M6 0H3V3H6V0Z" fill="black"/>
<path d="M6 3H3V6H6V3Z" fill="#FF0000"/>
<path d="M9 6H6V9H9V6Z" fill="#FF0000"/>
<path d="M12 3H9V6H12V3Z" fill="#FF0000"/>
<path d="M9 0H6V3H9V0Z" fill="black"/>
<path d="M3 3H0V6H3V3Z" fill="black"/>
<path d="M3 6H0V9H3V6Z" fill="black"/>
<path d="M3 9H0V12H3V9Z" fill="black"/>
<path d="M12 0H9V3H12V0Z" fill="black"/>
<path d="M6 9H3V12H6V9Z" fill="#FF0000"/>
<path d="M6 12H3V15H6V12Z" fill="black"/>
<path d="M9 9H6V12H9V9Z" fill="#FF0000"/>
<path d="M9 12H6V15H9V12Z" fill="#FF0000"/>
<path d="M9 15H6V18H9V15Z" fill="black"/>
<path d="M12 9H9V12H12V9Z" fill="#FF0000"/>
<path d="M12 6H9V9H12V6Z" fill="#FF0000"/>
<path d="M12 15H9V18H12V15Z" fill="#FF0000"/>
<path d="M12 12H9V15H12V12Z" fill="#FF0000"/>
<path d="M12 18H9V21H12V18Z" fill="black"/>
<path d="M21 0H24V3H21V0Z" fill="black"/>
<path d="M21 3H24V6H21V3Z" fill="#FF0000"/>
<path d="M18 3H21V6H18V3Z" fill="#FF0000"/>
<path d="M21 6H24V9H21V6Z" fill="#FF0000"/>
<path d="M18 6H21V9H18V6Z" fill="#FF0000"/>
<path d="M15 3H18V6H15V3Z" fill="#FF0000"/>
<path d="M18 0H21V3H18V0Z" fill="black"/>
<path d="M24 3H27V6H24V3Z" fill="black"/>
<path d="M24 6H27V9H24V6Z" fill="black"/>
<path d="M24 9H27V12H24V9Z" fill="black"/>
<path d="M15 0H18V3H15V0Z" fill="black"/>
<path d="M21 9H24V12H21V9Z" fill="#FF0000"/>
<path d="M21 12H24V15H21V12Z" fill="black"/>
<path d="M18 9H21V12H18V9Z" fill="#FF0000"/>
<path d="M18 12H21V15H18V12Z" fill="#FF0000"/>
<path d="M18 15H21V18H18V15Z" fill="black"/>
<path d="M15 9H18V12H15V9Z" fill="#FF0000"/>
<path d="M15 6H18V9H15V6Z" fill="#FF0000"/>
<path d="M15 15H18V18H15V15Z" fill="#FF0000"/>
<path d="M15 12H18V15H15V12Z" fill="#FF0000"/>
<path d="M15 18H18V21H15V18Z" fill="black"/>
<path d="M15 3H12V6H15V3Z" fill="black"/>
<path d="M15 9H12V12H15V9Z" fill="#FF0000"/>
<path d="M15 6H12V9H15V6Z" fill="#FF0000"/>
<path d="M15 15H12V18H15V15Z" fill="#FF0000"/>
<path d="M15 12H12V15H15V12Z" fill="#FF0000"/>
<path d="M15 18H12V21H15V18Z" fill="#FF0000"/>
<path d="M15 21H12V24H15V21Z" fill="black"/>
</svg>
